<svg width="1240" height="1240" viewBox="0 0 328.08333 328.08333" xml:space="preserve" xmlns="http://www.w3.org/2000/svg"><g stroke="#ff8500"><ellipse cx="164.04167" cy="164.04167" rx="147.27299" ry="147.2738" fill="none" stroke-width="5.29167"/><g fill="#ff8500" stroke-linecap="round" stroke-linejoin="bevel"><path d="M105.7133567 161.8948745s-4.50352-.87989-9.62454-5.36946c-2.23746-1.95837-4.50115-4.77992-5.692412-8.49315-.118498-.38407-.223544-.77347-.314775-1.16752-.794441-3.43144-.443912-6.7439.43109-9.48979 2.460592-7.65167 7.130837-10.80195 7.130837-10.80195s-2.319884 4.98539-3.003677 11.70499c-.239495 2.33864-.195269 4.93789.394588 7.42901.0687.29015.144128.57606.226459.85768.75231 2.72477 2.20604 5.282 3.66211 7.38631 3.41836 4.91514 6.79032 7.94388 6.79032 7.94388zM259.8085187 153.5604845s2.796036 6.02549 2.352726 14.44073c-.163223 3.65328-1.09253 7.48585-2.724226 11.62397-.000001 0-.007.0177-.007.0177-1.630246 4.12161-3.951454 8.43967-5.722389 11.81545-4.027559 7.65098-6.334523 13.16672-6.334523 13.16672s4.263001-4.17631 9.593892-11.06628c2.456254-3.16494 5.27021-7.23509 7.195553-12.0287-.000001.00001.0081-.0202.0081-.0202 1.892787-4.714 2.466697-9.43833 1.973126-13.67595-1.208533-9.77484-6.335285-14.27346-6.335285-14.27346z" stroke-width=".264583"/><path d="M262.0574707 106.4646545s5.280089 4.11047 8.888168 13.33283c-.000001 0 .000001.00001.000001.00001 1.553924 4.08982 2.887778 9.73398 1.229508 14.58781-.06865-.0863.08956-.18381.513784-.52472.312974-.0301.308304-.14013.01491-.1361h-.000002c-.842929-.19607-1.766314-.83102-3.022934-1.52503-.925756-.57539-2.163388-1.38448-3.86373-1.93482-.403163-.38306-1.514504-.34539-3.182173.39531l-.000018.00001c-.71282.60537-1.115836 1.21807-1.214173 1.79015-.149524.70774-.16635 1.24569-.09838 1.59346.07924.72436.185431 1.44562.31765 2.16321 1.121434 6.08634 3.986855 11.33795 7.133763 15.56542 2.899775 3.91902 7.41783 8.46186 9.706731 11.03764.08246.3034.291452.24104.249404-.0943.239035-.14668.07031-.12933-.201381.11756-1.166871.62021-2.878689.74344-4.254412.89623-2.10633.21459-4.268709.28407-5.628921.32249-2.291234.0654-3.576509.0787-3.576509.0787s1.241148.28788 3.521982.68073c1.383902.23895 3.473489.56968 5.710556.72213 1.366368.11148 3.240362.26162 5.155797-.31589.559058-.082 1.278806-.51968 1.852049-1.53336.278603-1.21897.01517-2.20055-.493327-2.67669-2.427127-3.61917-5.633017-7.42194-8.344591-11.76235-2.544301-4.09553-4.936471-8.89947-5.837297-13.94544-.107161-.60026-.192643-1.19979-.255442-1.79878.01931-.10352-.01292-.0298-.04734.24067-.02101.27804-.270439.60791-.737024 1.03633l-.000012.00001c-1.102054.33479-1.432208.53682-1.170174.34334.711088.14202 1.635098.77723 2.846792 1.39501 1.162189.65648 2.559875 1.40509 4.328049 1.8329h.000005c.646391.22698 1.628996.22997 2.827487-.15294 1.277351-.68289 1.987808-1.62263 2.16278-2.58214 1.55583-6.70332-.660905-12.90498-3.015539-17.0617h-.000002c-5.230725-9.41961-11.51604-12.08771-11.51604-12.08771zM226.7475867 86.7774115s2.00024-.618761 5.452599-1.938614c2.506756-.958343 9.253666-3.751486 14.215955-4.983312 2.83846-.696672 6.078497-1.263787 9.119473-.879491 0 .000001.000003 0 .000003 0 2.586824.283011 5.227453 1.359079 7.242841 3.19698.122662.123933.202742.38259.234547.660518.09295.398756.03309.936402-.06702 1.569218-.120359.710987-.348188 1.429847-.652152 2.165116-.431904 1.044747-1.013698 2.112145-1.622958 3.184786-1.37716 2.352429-3.029035 4.558322-4.720872 6.610631-1.98246 2.398355-4.03301 4.565977-6.093699 6.513506l-.000003.000002c-2.20166 2.075595-4.282259 3.804923-6.422863 5.253593-2.080711 1.38395-3.82457 2.374-5.714153 2.85125-.813675.20408-1.552935.30396-2.247427.22681-.679446-.0708-1.296107-.3046-1.776079-.66206-.655221-.47104-1.109606-1.20129-1.403278-1.82858h-.000001c-.920866-1.98128-.867686-3.325039-.867686-3.325039s-.37442 1.275229.16819 3.563949h.00001c.17612.7479.53115 1.68373 1.272637 2.49427.566329.60238 1.344603 1.098 2.276945 1.3584.917543.25402 1.90741.31238 2.919762.2086 2.281419-.22727 4.542267-1.03541 6.910976-2.2462 2.499121-1.25697 4.979441-2.86304 7.503683-4.83364h.000003c2.380431-1.854373 4.754853-3.998006 7.030778-6.453616 1.944112-2.091988 3.856063-4.455689 5.498043-7.126475.736033-1.165588 1.445572-2.460241 2.009804-3.887041.395926-1.001194.714883-2.053765.924939-3.160239.204655-1.043564.239848-2.220532.0022-3.467557-.261881-1.184074-.851-2.306181-1.737342-3.250063-3.058994-2.554371-6.78483-3.858561-10.346323-4.026322l-.000004.000001c-3.94116-.126976-7.541457.859536-10.486405 1.99636-5.526423 2.117724-11.115169 5.648822-13.689227 7.225462-3.1362 1.920963-4.93587 2.988797-4.93587 2.988797z" stroke-width=".264583"/><path d="M180.6811267 265.1277045s5.49595 1.45012 14.6314-.84087c3.86462-.9759 8.17729-2.82868 12.48602-5.94454 9.02441-6.5467 15.31427-15.19129 23.1108-26.98629-.31851.25529-.84599.38727-1.6202.44275l-.00002-.00001c-.49696-.23876-.80132-.46959-.92003-.73578-.0918-.37956-.21094-.34017-.11516.10186-.00055 1.14254-.30684 2.4331-.57746 3.96462-.26622 1.36389-.60711 2.949-.67891 4.7418-.11618.44109-.0321 1.33117.48182 2.56986.24275.56309.80923 1.06942 1.69435 1.47014.98538.23307 1.70275.21182 2.11621-.01 2.138736-.703 4.227365-1.60486 6.23832-2.69326 2.675219-1.44791 5.14135-3.18707 7.356875-5.13731 4.103882-3.47694 7.415815-8.12419 8.227307-13.60284.308698-2.57942-.03331-5.05416-.681235-7.26444-.743268-2.57464-1.824572-4.92713-2.949768-7.056-.000001-.00001-.000002-.00001-.000003-.00001-2.777203-5.27458-5.874837-9.72039-8.310281-13.93742-2.981018-5.2337-4.863932-9.33644-5.301847-13.76833 0 0 0 0 0 0-.269799-2.61693.07668-4.95919.713823-6.87442 1.665228-5.04057 4.289659-7.09025 4.289659-7.09025s-2.886169 1.64201-5.221851 6.7214c-.892365 1.95129-1.547014 4.44404-1.527259 7.33493.000001 0 0 0 0 .00001.04884 4.79361 1.634057 9.57332 4.338096 15.10699 2.18557 4.53625 5.001941 9.20955 7.343831 14.31916l.000003.00001c.941425 2.06321 1.81604 4.20935 2.326871 6.37994.423918 1.84546.638548 3.73695.332061 5.46445-.522256 3.85766-3.387681 7.34441-6.882128 10.46046-1.974068 1.68501-4.148851 3.19613-6.482319 4.46178-1.754516.95164-3.565895 1.74666-5.411295 2.37171.10351-.11829.4783-.0864 1.15581.0389.61705.3069.97511.59296 1.0833.90642.0855.42707.20505.42634.10523-.0464.002-1.15872.293688-2.50942.531667-4.00583.25057-1.42503.548335-3.01727.55017-4.82239.09351-.48826-.03653-1.38663-.595427-2.5636-.27545-.53086-.81276-.9886-1.59845-1.3315l-.00004-.00002c-1.10539-.064-2.00162.10491-2.65836.45455-8.29128 12.63475-13.73895 21.23936-22.20928 28.38229-3.79222 3.219-7.63966 5.32612-11.21636 6.6108-8.49981 3.06837-14.15594 2.40641-14.15594 2.40641z" stroke-width=".0529167"/><path d="M141.8043467 256.8802845s.6322 1.57849 2.21937 4.07356c1.52516 2.39759 4.23582 6.0064 8.55836 8.7837 3.39516 2.16024 7.88376 3.64702 12.82336 3.2589.21579-.017.43105-.0374.64567-.0614 5.20033-.63715 9.48381-3.09727 12.56237-5.73331 7.25972-6.19664 9.09609-12.4381 9.09609-12.4381s-4.09143 4.92625-11.40132 9.24295c-3.07023 1.8027-6.86218 3.4717-10.82719 3.86777-.16287.0186-.32644.0349-.49069.049-3.71385.31968-7.39105-.51253-10.43896-1.83317-3.96137-1.70124-7.30247-4.35521-9.37221-6.13235-2.17497-1.86749-3.37485-3.07756-3.37485-3.07756zM174.8772767 103.5542435s-1.13154.484243-2.69154.880518c-1.32811.337367-4.04209.797647-6.26154 2.166043-.0793.0489-.15795.0988-.23608.14971-1.52601.87031-2.75833 2.36504-3.33641 4.08634-.53015 2.09545.0918 3.65698.57691 4.51312.51342.90603.96845 1.30115.96845 1.30115s.15515-.58519.46809-1.46716c.29678-.83644.784-2.03097 1.5528-2.57054.52661-.51093 1.38807-.83779 2.40851-1.50907.066-.0364.13259-.0735.1996-.11128 2.19221-1.23596 4.0055-2.77899 5.17974-4.55665 1.08642-1.644714 1.17147-2.882181 1.17147-2.882181zM180.0756367 157.7747945s.71238-3.71898 3.92479-8.43748c1.76839-2.5762 3.93911-5.08286 6.83528-7.96193 1.80967-1.78849 3.77013-3.60572 5.87779-5.40673 3.67141-3.13726 7.15327-5.68077 10.56354-7.78775.49546-.38777 1.25553-.5446 1.9861-.52509.95609.0302 2.07312.39654 3.07677.72034 5.14655 1.76438 8.32731 1.61873 8.32731 1.61873s-2.79248-1.11982-7.24303-3.89134c-.91539-.59215-2.0938-1.28955-3.55925-1.70821-1.30026-.35624-2.82722-.3476-4.3546.28535-3.96151 1.61726-8.14112 4.02257-12.1092 7.40914-2.29073 1.95502-4.29024 4.04986-6.01388 6.16126-2.76651 3.36742-4.66341 6.67521-5.87987 9.77965-2.35458 5.94433-1.43175 9.74406-1.43175 9.74406z" stroke-width=".0529167"/><path d="M209.4053967 128.5573645s.68569 1.87328-.76779 3.88591c-.74229 1.0969-1.82093 1.88598-3.42839 2.84676-3.37267 1.95558-6.9547 2.97638-12.07854 4.34067.001-.00026-.19283.0487-.19182.0485-5.15844 1.30159-9.05583 2.10237-13.05202 2.31703 0 0 0 0 0 0-2.10896.0958-3.55648.0656-4.986-.30609-.74827-.19336-1.3122-.42677-1.787-.72977-.97223-.61596-1.27927-1.29047-1.27927-1.29047s-.0779.7488.70332 1.87061c.37163.53345.91652 1.09408 1.67492 1.60908 1.38158.94172 3.16509 1.65425 5.41796 2.0897 0 0 0 0 0 0 4.17714.83876 9.14701.78623 14.57282-.62309.0691-.018.13805-.0361.20685-.0543 5.35933-1.35729 9.68198-3.66445 12.79439-6.6849 1.58295-1.49603 2.59838-3.13927 3.03736-4.73577.85575-3.23813-.83679-4.58381-.83679-4.58381zM218.4409667 188.9106445s.36947-2.26113 1.1617-4.71826c.31858-1.02655.7506-2.14891 1.10923-3.47618.0707-.25568.13664-.51672.19661-.78285.60301-2.67599.45943-5.18948.0401-7.11429-.4093-1.87886-1.02975-2.97429-1.02975-2.97429s-.65577 1.0722-1.49197 2.65906c-.79832 1.51497-1.93668 3.80633-2.49387 6.31674-.0587.26429-.11052.52828-.1559.79159-.28786 1.56693-.26216 3.13107.0419 4.54909.74716 3.32887 2.62189 4.74939 2.62189 4.74939zM192.6039067 217.3652945s1.14712.41383 3.25175.73849c2.00265.30893 5.30358.55886 8.91624-.64008 2.95231-1.03053 5.88554-3.16234 7.8594-6.40842.13666-.22846.26857-.45974.39574-.6937 1.76631-3.24959 2.4273-6.65405 2.68451-9.49108.70021-7.3205-.4699-12.31686-.4699-12.31686s-1.49224 4.92142-3.56653 11.51298c-.79997 2.49735-1.7615 5.43562-3.10466 7.84628-.0997.17893-.20137.35502-.30527.52836-1.35628 2.31561-3.18086 4.1557-5.15625 5.3622-2.47117 1.55625-5.45067 2.38257-7.31257 2.84434-1.98982.49349-3.19246.71749-3.19246.71749zM161.5471867 193.4179445s4.01092.99757 9.96444.78775c2.62247-.079 5.86272-.42556 9.08933-1.71561.38565-.15419.76577-.31974 1.13986-.49672 1.41454-.65543 2.76535-1.57846 3.89425-2.80891 1.10361-1.19253 1.76719-2.70519 1.92989-4.26238.11585-2.03529-.57314-3.64016-1.32263-4.75265 0 0 0 0 0 0-2.26654-3.42388-4.67664-4.33781-4.67664-4.33781s1.45346 2.13388 2.14648 5.45766c0 0 0 0 0 0 .19141 1.01119.29394 2.173-.0767 2.94744-.20956.57747-.70127 1.12047-1.30244 1.61873-.69759.58093-1.61781 1.02564-2.71743 1.52967-.29819.13305-.60195.26184-.91207.38749-2.42461.98242-5.53173 1.85164-7.82452 2.55541-5.44 1.65243-9.33183 3.08993-9.33183 3.08993zM144.8338367 216.0556745s6.37874.6723 13.68-5.56926c3.49454-3.39763 5.89013-9.05788 4.74739-16.10274-.00087.12772-.001.25569-.0006.38388.0244 6.61767 1.86504 12.0693 5.49904 15.62811 3.72669 2.99818 7.89598 4.24057 10.33181 4.84248 2.63321.65069 4.15801.81753 4.15801.81753s-1.36958-.69954-3.67967-2.01892c-2.09456-1.19628-5.73244-3.35184-8.25268-6.31596-3.42693-3.1937-6.08228-7.73157-7.97275-13.308-.0371-.10933-.0737-.21857-.10978-.3277-.74486 5.3808-3.95252 10.44305-7.25708 13.87769-2.56026 3.1034-5.45821 5.14689-7.6059 6.37439-2.15285 1.23044-3.53779 1.7185-3.53779 1.7185z" stroke-width=".0529167"/><path d="M68.2748147 153.5604845s-2.796036 6.02549-2.352726 14.44073c.163223 3.65328 1.09253 7.48585 2.724226 11.62397.000001 0 .007.0177.007.0177 1.630246 4.12161 3.951454 8.43967 5.722389 11.81545 4.027559 7.65098 6.334523 13.16672 6.334523 13.16672s-4.263001-4.17631-9.593892-11.06628c-2.456254-3.16494-5.27021-7.23509-7.195553-12.0287.000001.00001-.0081-.0202-.0081-.0202-1.892787-4.714-2.466697-9.43833-1.973126-13.67595 1.208533-9.77484 6.335285-14.27346 6.335285-14.27346z" stroke-width=".264583"/><path d="M66.0258627 106.4646545s-5.280089 4.11047-8.888168 13.33283c.000001 0-.000001.00001-.000001.00001-1.553924 4.08982-2.887778 9.73398-1.229508 14.58781.06865-.0863-.08956-.18381-.513784-.52472-.312974-.0301-.308304-.14013-.01491-.1361h.000002c.842929-.19607 1.766314-.83102 3.022934-1.52503.925756-.57539 2.163388-1.38448 3.86373-1.93482.403163-.38306 1.514504-.34539 3.182173.39531l.000018.00001c.71282.60537 1.115836 1.21807 1.214173 1.79015.149524.70774.16635 1.24569.09838 1.59346-.07924.72436-.185431 1.44562-.31765 2.16321-1.121434 6.08634-3.986855 11.33795-7.133763 15.56542-2.899775 3.91902-7.41783 8.46186-9.706731 11.03764-.08246.3034-.291452.24104-.249404-.0943-.239035-.14668-.07031-.12933.201381.11756 1.166871.62021 2.878689.74344 4.254412.89623 2.10633.21459 4.268709.28407 5.628921.32249 2.291234.0654 3.576509.0787 3.576509.0787s-1.241148.28788-3.521982.68073c-1.383902.23895-3.473489.56968-5.710556.72213-1.366368.11148-3.240362.26162-5.155797-.31589-.559058-.082-1.278806-.51968-1.852049-1.53336-.278603-1.21897-.01517-2.20055.493327-2.67669 2.427127-3.61917 5.633017-7.42194 8.344591-11.76235 2.544301-4.09553 4.936471-8.89947 5.837297-13.94544.107161-.60026.192643-1.19979.255442-1.79878-.01931-.10352.01292-.0298.04734.24067.02101.27804.270439.60791.737024 1.03633l.000012.00001c1.102054.33479 1.432208.53682 1.170174.34334-.711088.14202-1.635098.77723-2.846792 1.39501-1.162189.65648-2.559875 1.40509-4.328049 1.8329h-.000005c-.646391.22698-1.628996.22997-2.827487-.15294-1.277351-.68289-1.987808-1.62263-2.16278-2.58214-1.55583-6.70332.660905-12.90498 3.015539-17.0617h.000002c5.230725-9.41961 11.51604-12.08771 11.51604-12.08771zM101.3357467 86.7774115s-2.00024-.618761-5.452599-1.938614c-2.506756-.958343-9.253666-3.751486-14.215955-4.983312-2.83846-.696672-6.078497-1.263787-9.119473-.879491 0 .000001-.000003 0-.000003 0-2.586824.283011-5.227453 1.359079-7.242841 3.19698-.122662.123933-.202742.38259-.234547.660518-.09295.398756-.03309.936402.06702 1.569218.120359.710987.348188 1.429847.652152 2.165116.431904 1.044747 1.013698 2.112145 1.622958 3.184786 1.37716 2.352429 3.029035 4.558322 4.720872 6.610631 1.98246 2.398355 4.03301 4.565977 6.093699 6.513506l.000003.000002c2.20166 2.075595 4.282259 3.804923 6.422863 5.253593 2.080711 1.38395 3.82457 2.374 5.714153 2.85125.813675.20408 1.552935.30396 2.247427.22681.679446-.0708 1.296107-.3046 1.776079-.66206.655221-.47104 1.109606-1.20129 1.403278-1.82858h.000001c.920866-1.98128.867686-3.325039.867686-3.325039s.37442 1.275229-.16819 3.563949h-.00001c-.17612.7479-.53115 1.68373-1.272637 2.49427-.566329.60238-1.344603 1.098-2.276945 1.3584-.917543.25402-1.90741.31238-2.919762.2086-2.281419-.22727-4.542267-1.03541-6.910976-2.2462-2.499121-1.25697-4.979441-2.86304-7.503683-4.83364h-.000003c-2.380431-1.854373-4.754853-3.998006-7.030778-6.453616-1.944112-2.091988-3.856063-4.455689-5.498043-7.126475-.736033-1.165588-1.445572-2.460241-2.009804-3.887041-.395926-1.001194-.714883-2.053765-.924939-3.160239-.204655-1.043564-.239848-2.220532-.0022-3.467557.261881-1.184074.851-2.306181 1.737342-3.250063 3.058994-2.554371 6.78483-3.858561 10.346323-4.026322l.000004.000001c3.94116-.126976 7.541457.859536 10.486405 1.99636 5.526423 2.117724 11.115169 5.648822 13.689227 7.225462 3.1362 1.920963 4.93587 2.988797 4.93587 2.988797z" stroke-width=".264583"/><path d="M147.4022067 265.1277045s-5.49595 1.45012-14.6314-.84087c-3.86462-.9759-8.17729-2.82868-12.48602-5.94454-9.02441-6.5467-15.31427-15.19129-23.1108-26.98629.31851.25529.84599.38727 1.6202.44275l.00002-.00001c.49696-.23876.80132-.46959.92003-.73578.0918-.37956.21094-.34017.11516.10186.00055 1.14254.30684 2.4331.57746 3.96462.26622 1.36389.60711 2.949.67891 4.7418.11618.44109.0321 1.33117-.48182 2.56986-.24275.56309-.80923 1.06942-1.69435 1.47014-.98538.23307-1.70275.21182-2.11621-.01-2.138736-.703-4.227365-1.60486-6.23832-2.69326-2.675219-1.44791-5.14135-3.18707-7.356875-5.13731-4.103882-3.47694-7.415815-8.12419-8.227307-13.60284-.308698-2.57942.03331-5.05416.681235-7.26444.743268-2.57464 1.824572-4.92713 2.949768-7.056.000001-.00001.000002-.00001.000003-.00001 2.777203-5.27458 5.874837-9.72039 8.310281-13.93742 2.981018-5.2337 4.863932-9.33644 5.301847-13.76833 0 0 0 0 0 0 .269799-2.61693-.07668-4.95919-.713823-6.87442-1.665228-5.04057-4.289659-7.09025-4.289659-7.09025s2.886169 1.64201 5.221851 6.7214c.892365 1.95129 1.547014 4.44404 1.527259 7.33493-.000001 0 0 0 0 .00001-.04884 4.79361-1.634057 9.57332-4.338096 15.10699-2.18557 4.53625-5.001941 9.20955-7.343831 14.31916l-.000003.00001c-.941425 2.06321-1.81604 4.20935-2.326871 6.37994-.423918 1.84546-.638548 3.73695-.332061 5.46445.522256 3.85766 3.387681 7.34441 6.882128 10.46046 1.974068 1.68501 4.148851 3.19613 6.482319 4.46178 1.754516.95164 3.565895 1.74666 5.411295 2.37171-.10351-.11829-.4783-.0864-1.15581.0389-.61705.3069-.97511.59296-1.0833.90642-.0855.42707-.20505.42634-.10523-.0464-.002-1.15872-.293688-2.50942-.531667-4.00583-.25057-1.42503-.548335-3.01727-.55017-4.82239-.09351-.48826.03653-1.38663.595427-2.5636.27545-.53086.81276-.9886 1.59845-1.3315l.00004-.00002c1.10539-.064 2.00162.10491 2.65836.45455 8.29128 12.63475 13.73895 21.23936 22.20928 28.38229 3.79222 3.219 7.63966 5.32612 11.21636 6.6108 8.49981 3.06837 14.15594 2.40641 14.15594 2.40641z" stroke-width=".0529167"/><path d="M186.2789867 256.8802845s-.6322 1.57849-2.21937 4.07356c-1.52516 2.39759-4.23582 6.0064-8.55836 8.7837-3.39516 2.16024-7.88376 3.64702-12.82336 3.2589-.21579-.017-.43105-.0374-.64567-.0614-5.20033-.63715-9.48381-3.09727-12.56237-5.73331-7.25972-6.19664-9.09609-12.4381-9.09609-12.4381s4.09143 4.92625 11.40132 9.24295c3.07023 1.8027 6.86218 3.4717 10.82719 3.86777.16287.0186.32644.0349.49069.049 3.71385.31968 7.39105-.51253 10.43896-1.83317 3.96137-1.70124 7.30247-4.35521 9.37221-6.13235 2.17497-1.86749 3.37485-3.07756 3.37485-3.07756zM153.2060567 103.5542435s1.13154.484243 2.69154.880518c1.32811.337367 4.04209.797647 6.26154 2.166043.0793.0489.15795.0988.23608.14971 1.52601.87031 2.75833 2.36504 3.33641 4.08634.53015 2.09545-.0918 3.65698-.57691 4.51312-.51342.90603-.96845 1.30115-.96845 1.30115s-.15515-.58519-.46809-1.46716c-.29678-.83644-.784-2.03097-1.5528-2.57054-.52661-.51093-1.38807-.83779-2.40851-1.50907-.066-.0364-.13259-.0735-.1996-.11128-2.19221-1.23596-4.0055-2.77899-5.17974-4.55665-1.08642-1.644714-1.17147-2.882181-1.17147-2.882181zM148.0076967 157.7747945s-.71238-3.71898-3.92479-8.43748c-1.76839-2.5762-3.93911-5.08286-6.83528-7.96193-1.80967-1.78849-3.77013-3.60572-5.87779-5.40673-3.67141-3.13726-7.15327-5.68077-10.56354-7.78775-.49546-.38777-1.25553-.5446-1.9861-.52509-.95609.0302-2.07312.39654-3.07677.72034-5.14655 1.76438-8.32731 1.61873-8.32731 1.61873s2.79248-1.11982 7.24303-3.89134c.91539-.59215 2.0938-1.28955 3.55925-1.70821 1.30026-.35624 2.82722-.3476 4.3546.28535 3.96151 1.61726 8.14112 4.02257 12.1092 7.40914 2.29073 1.95502 4.29024 4.04986 6.01388 6.16126 2.76651 3.36742 4.66341 6.67521 5.87987 9.77965 2.35458 5.94433 1.43175 9.74406 1.43175 9.74406z" stroke-width=".0529167"/><path d="M118.6779367 128.5573645s-.68569 1.87328.76779 3.88591c.74229 1.0969 1.82093 1.88598 3.42839 2.84676 3.37267 1.95558 6.9547 2.97638 12.07854 4.34067-.001-.00026.19283.0487.19182.0485 5.15844 1.30159 9.05583 2.10237 13.05202 2.31703 0 0 0 0 0 0 2.10896.0958 3.55648.0656 4.986-.30609.74827-.19336 1.3122-.42677 1.787-.72977.97223-.61596 1.27927-1.29047 1.27927-1.29047s.0779.7488-.70332 1.87061c-.37163.53345-.91652 1.09408-1.67492 1.60908-1.38158.94172-3.16509 1.65425-5.41796 2.0897 0 0 0 0 0 0-4.17714.83876-9.14701.78623-14.57282-.62309-.0691-.018-.13805-.0361-.20685-.0543-5.35933-1.35729-9.68198-3.66445-12.79439-6.6849-1.58295-1.49603-2.59838-3.13927-3.03736-4.73577-.85575-3.23813.83679-4.58381.83679-4.58381zM109.6423667 188.9106445s-.36947-2.26113-1.1617-4.71826c-.31858-1.02655-.7506-2.14891-1.10923-3.47618-.0707-.25568-.13664-.51672-.19661-.78285-.60301-2.67599-.45943-5.18948-.0401-7.11429.4093-1.87886 1.02975-2.97429 1.02975-2.97429s.65577 1.0722 1.49197 2.65906c.79832 1.51497 1.93668 3.80633 2.49387 6.31674.0587.26429.11052.52828.1559.79159.28786 1.56693.26216 3.13107-.0419 4.54909-.74716 3.32887-2.62189 4.74939-2.62189 4.74939zM135.4794267 217.3652945s-1.14712.41383-3.25175.73849c-2.00265.30893-5.30358.55886-8.91624-.64008-2.95231-1.03053-5.88554-3.16234-7.8594-6.40842-.13666-.22846-.26857-.45974-.39574-.6937-1.76631-3.24959-2.4273-6.65405-2.68451-9.49108-.70021-7.3205.4699-12.31686.4699-12.31686s1.49224 4.92142 3.56653 11.51298c.79997 2.49735 1.7615 5.43562 3.10466 7.84628.0997.17893.20137.35502.30527.52836 1.35628 2.31561 3.18086 4.1557 5.15625 5.3622 2.47117 1.55625 5.45067 2.38257 7.31257 2.84434 1.98982.49349 3.19246.71749 3.19246.71749zM198.1484967 220.7876845s-2.59355 1.38838-5.8294 5.35497h-.00001c-1.72616 2.15416-3.66892 4.93597-6.33138 7.94145-2.30531 2.61113-5.31063 5.4407-9.14016 7.55721-3.96054 2.15734-8.65666 3.38274-13.63019 3.3426-.0466-.00037-.0933-.00086-.13985-.001-4.55392-.0533-8.8347-1.30583-12.4295-3.36508-3.56268-2.0684-6.39935-4.76951-8.6385-7.21782-2.71367-2.95123-4.82349-5.66993-6.75055-7.79158-3.97054-4.34319-7.1762-5.95258-7.1762-5.95258s3.59105.63635 8.55039 4.4514c2.36079 1.80348 4.96159 4.21609 7.88525 6.68178 2.41562 2.02572 5.25298 4.23416 8.32783 5.70675 3.04678 1.483 6.58916 2.35284 10.28872 2.39257.0392.00037.0785.00066.11771.00088 4.17388.0232 8.12611-.80007 11.52788-2.35134 3.32961-1.49053 6.32777-3.7542 8.8101-5.87779 2.8615-2.45608 5.3006-4.91764 7.45707-6.754 0 0 0 0 0 0 4.11544-3.56146 7.10079-4.11796 7.10079-4.11796zM166.5361467 193.4179445s-4.01092.99757-9.96444.78775c-2.62247-.079-5.86272-.42556-9.08933-1.71561-.38565-.15419-.76577-.31974-1.13986-.49672-1.41454-.65543-2.76535-1.57846-3.89425-2.80891-1.10361-1.19253-1.76719-2.70519-1.92989-4.26238-.11585-2.03529.57314-3.64016 1.32263-4.75265 0 0 0 0 0 0 2.26654-3.42388 4.67664-4.33781 4.67664-4.33781s-1.45346 2.13388-2.14648 5.45766c0 0 0 0 0 0-.19141 1.01119-.29394 2.173.0767 2.94744.20956.57747.70127 1.12047 1.30244 1.61873.69759.58093 1.61781 1.02564 2.71743 1.52967.29819.13305.60195.26184.91207.38749 2.42461.98242 5.53173 1.85164 7.82452 2.55541 5.44 1.65243 9.33183 3.08993 9.33183 3.08993z" stroke-width=".0529167"/></g><path d="M163.41069 56.983086c-3.7515 3.24447-6.37829 8.307444-5.15938 12.170833-8.7524-3.338309-20.96722-9.832015-31.35312-10.583333-3.29222 3.991751 9.68663 12.887089 6.64392 13.680839-3.0427.79375-32.17973-4.08363-39.584541 3.649369 9.426561.862694 16.367061 9.686954 27.516661 11.641667 38.70303-13.362707 44.91881-13.11509 84.79896 1.190625 7.40637-.224403 16.72598-8.716609 23.94479-9.392709-5.27339-9.15175-22.58016-3.650719-35.45417-6.482291-2.07094-4.036635 8.77018-8.855717 5.82084-12.303125-12.34722 1.684231-19.37276 2.783189-31.8823 9.392708 2.99668-4.455631-1.18539-9.752741-5.29166-12.964583z" fill="none" stroke-width="3.96875" stroke-linecap="round" stroke-linejoin="round"/></g></svg>