<svg width="1240" height="1240" viewBox="0 0 328 328" xml:space="preserve" xmlns="http://www.w3.org/2000/svg"><path d="M63 76c-5 2-5 4-9 8-3 5-11 6-15 9 11 5 19 15 22 29 1 5 1 9 3 13 2 5 8 12 11 14 0 0 9 8 15 9l19 4s14 8 17 14c1 2 3-8 6-10l1-2c-8-5-19-21-18-31l2-17c0-7-5-24-13-27l3 20v12c-9 0-18 3-18 3l-2-4-9-15-9-14-3-8zm202 0-3 7-2 8-10 14-9 15-2 4s-9-3-18-3v-12l3-20c-8 3-12 20-13 27l3 17c0 10-11 26-19 31l1 2c3 2 5 12 6 10 3-6 17-14 17-14l19-4c6-1 15-9 15-9 3-2 9-9 11-14 2-4 2-8 3-13 4-14 11-24 22-29-4-3-11-4-15-9-4-4-4-6-9-8zM61 84l15 23c5 6 11 14 11 22l9-4 11-1c2-1 2-2 2-3l1-19c2 2 4 15 4 15s-3 15-2 20c1 8 7 15 11 22l7 6-3 6-14-11c-11-6-26-4-35-13l-8-7c-4-7-3-10-7-23-3-9-10-16-17-23 8-4 9-8 15-10zm206 0c6 2 7 6 15 10-7 7-14 14-17 23-4 13-2 16-7 23l-8 7c-9 9-24 7-35 13l-14 11-2-6 6-6c4-7 10-14 11-22 1-5-2-20-2-20s2-13 4-15l1 19c0 1 0 2 2 3l11 1 9 4c0-8 6-16 11-22l15-23zm-123 47c-6 1-8 12-13 14-3 1-8-4-9-2-2 5 8 15 12 14l7-4c6-4 13-4 15-13 1-2-9-9-12-9zm40 0c-3 0-13 7-12 9 2 9 9 9 15 13l7 4c4 1 15-9 12-14-1-2-6 3-8 2-6-2-8-13-14-14zm-38 4c4 0 7 5 5 8-1 4-5 4-8 5-6 3-14 9-17 0 11 2 10-9 18-12l2-1zm36 0 2 1c8 3 7 14 18 12-3 9-11 3-17 0-3-1-6-1-8-5-2-3 2-8 5-8zm-20 10c-9 0-24 15-24 17l8 1c-6 2-20 9-8 14 0 0-11 0-14 4l2 5c-1 1-1 2-5-1-2 0-6 8-8 15l10 6-6 2c-2 1 14 16 15 26 15 11 5 34 16 55 1 2 4-1 8-2h16c3 1 6 4 7 2 12-21 2-44 16-55 2-10 18-25 15-26l-5-2 10-6c-3-7-7-15-9-15-4 3-4 2-5 1 2-3 3-4 2-5-3-4-13-4-13-4 11-5-3-12-9-14h9c-1-2-16-18-25-18h-3zm2 4c4-1 14 5 17 11-5-2-14 3-12 3 0 0 20 4 22 9 0 0-8 6-7 7l16 3-2 4c2 2 4 4 6 4l2-2c3 3 5 9 5 10s-3 4-9 7c-2 1 4 2 5 4l-14 20c-17 27-4 33-14 56-1 2-5-1-7-1h-16c-3 0-7 3-8 1-10-23 3-29-14-56l-13-20c0-2 6-3 4-4-6-3-9-6-9-7 1-1 2-7 5-10l2 2c3 0 4-2 6-4l-1-4 15-3c1-1-7-7-7-7 3-5 22-9 22-9 3 0-6-5-12-3 4-6 13-11 18-11zm-59 24-10 1-10 1c7 8 31 29 32 7-1-7-6-9-12-9zm116 0c-5 0-10 2-12 9 2 22 25 1 32-7l-9-1-11-1zm-120 2c3-1 6 0 9 1 4 1 7 5 6 8-5 14-22 0-25-7l10-2zm125 0 10 2c-3 7-20 21-25 7-2-3 2-7 5-8s6-2 10-1zm-84 9zm14 1-9 1c1 5 6 14 9 15zm18 0c-2 5-2 10-1 15 4-1 9-9 10-12zm-38 6c-4 0-7 2-12 4 5 10 15 7 24 7l-2-5c-4-4-7-6-10-6zm56 0c-3 1-6 2-8 6l-3 5c10 0 19 3 24-7-5-2-9-4-13-4zm-22 1c-6 3-7 2-11 0v3c2 9 3 14 3 23v24l-4 15h13c-4-15-4-23-4-39-1-16 2-21 3-26zm23 1c2 0 4 1 6 4 1 2-3 4-5 4l-5 1-6-1c1-4 6-8 10-8zm-56 0c3 0 6 2 8 7-6 1-15 2-17-4l9-3zm28 68c-2 0-12 7-13 9s0 11 9 12l4-1 4 2c4 0 11-9 8-14l-12-8zm0 2c10 5 15 11 5 18-4-2-7-2-10 0-13-6-3-13 5-18zm-6 24-6 3-4 1c1 2 3 6 6 8l10 1 8-1c3-2 5-6 6-8l-4-1c-2 0-4-3-7-3h-9zm2 3h6c1-1 3 1 5 2h3l-5 5-5 1-7-1-5-5h3l5-2z" fill="#0af"/><circle cx="164" cy="164" fill="none" stroke="#00b5ff" stroke-width="2.3" r="147.3"/></svg>