<svg width="1240" height="1240" viewBox="0 0 328 328" xml:space="preserve" xmlns="http://www.w3.org/2000/svg"><g fill="none" stroke="#ff2500" stroke-width="5.3"><circle cx="164" cy="164" r="147.3"/><g stroke-linejoin="round"><path d="M144 271c11-9 14-1 20 3 5 2 12 0 17-1 4-5 7-10 16 1 20-2-5-36-22-17-3 2-6-11-15 0h-9c-4 3-12 17-7 14z"/><path d="M87 240c5 33 48-2 71-7 25-6 85 37 74-26-10-38 27-27 35-17 19 23-13 77-53 72-40-51-140 38-127-22Z"/><path d="M124 149c15 20 27 66 72 29 9-4 23 2 29 10-6 14 1 22 4 31-15 2-21 18-21 18l-22-6s6-19 16-25c-3-4-9-7-13-10-7 24-75 40-67-17 2-11 7-19 2-30z"/><path d="M294 193c0-8 4-9-13-27-7-7 5-14-3-21 10-4 2-13 0-19 3 22-33 11-57-16-22-24-54-41-34-60-7-12-27-9-32 1 8-5 26 2 8 10 17 26 6 73 1 93-9-6-10-62-33-74-12-3-17-4-24 3s-9 11-20 30c-6 18 2 15-11 40-5 0-11 1-12-8-6 6-13 4-18 5 8 13 18 2 17 9 0 4-7 1-11 2-9 4-1 9-24 14 4 4 3 6 3 10 5-5 9-2 12-2 3-1 6-6 9-4-7 6 0 7 1 8-6 7-11 3-14 4 1 5 2 5 1 17 18-24 22-7 33-11 21-8 32-28 35-45 4-16 1-24 11-31 12-4 11 18 15 26 14 35 32 54 58 25 8-8 26 3 38 10 21-32 55 10 64 11z"/><path d="M258 159c-20-11-38-20-57-52 1 12 19 43 29 62 11-10 19-9 28-10zM183 167l-2-61c6 18 13 49 19 55-4 0-11 1-17 6z"/></g></g></svg>