<svg width="1240" height="1240" viewBox="0 0 328.08333 328.08333" xml:space="preserve" xmlns="http://www.w3.org/2000/svg"><g fill="none" stroke="#6100ff" stroke-width="5.29167"><ellipse cx="164.04167" cy="164.04167" rx="147.27303" ry="147.2738"/><g stroke-linejoin="round"><path d="M159.58663 243.21527c.24157-15.15146-52.60579-37.23793-57.06204-65.85522-3.701409-23.76985 11.8797-49.77025 29.93418-65.66812 40.14134-29.702734 66.31239-19.29088 66.31239-19.29088s-6.42946 5.455689-8.03426 9.28164c-5.74432 13.6948 1.63739 29.0294.28063 43.49812-1.66907 17.79929-19.0517 45.52695 11.22532 116.74332-15.89697-9.85537-39.10153-39.10152-39.10153-39.10152l-19.64431-34.98559s-7.84806-15.3618-8.04482-42.65621c-8.47581 22.56949-5.5866 32.5893-.74835 46.21089 8.46731 17.38715 23.70048 23.25589 24.88279 51.82357z"/><path d="M175.68333 248.97291s5.12416 9.86056 9.26042 13.36146c8.84816 7.48901 18.15152 9.22811 31.48541 14.15521 2.70707 1.00031-14.59006-35.33156-5.55624-30.42708 21.30324 11.56557 21.80745 9.20675 37.04166 11.37708 5.58933 1.85243-17.9595 16.56652-28.97187 21.29896-14.57907 6.26519-33.45844 11.36443-55.43021 4.7625 13.09069-8.85414 10.5923-21.77362 12.17083-34.52813zM212.19583 238.65416c3.08076 2.96974-7.95557-61.64603 23.8125-87.3125-15.91042 55.17961-7.47951 74.61069-7.40833 70.90834.60031-31.22372 30.67822-40.68878 34.13125-59.26667 3.46542-18.64456 8.94189-69.965336-53.51003-74.815636-5.59768 5.897213-7.0885 7.483872-11.31289 13.961476 16.14002 35.69649-22.77155 95.60167 14.2875 136.52499zM198.83437 86.915624c3.7143 3.938832-6.35-14.948958-6.35-14.948958s4.45195-.58225 3.70417-1.719792c-7.97018-12.124459-14.81667-9.921875-14.81667-9.921875l.13229-3.307291-7.68759-1.515276s3.16336-3.889473 1.99905-4.702433c-27.47245-19.182245-67.36165.539103-80.301038 20.240625-35.655019 13.100752-44.449999 34.131246-44.449999 34.131246S106.87852 74.9947 125.67708 79.904166c-6.31122 9.440053-13.49375 17.991666-13.49375 17.991666s13.50807 1.616518 17.4625 11.112498c3.43341-7.28819 8.83917-10.125594 11.1125-10.715623-11.60498-.393281-15.47812-7.805208-15.47812-7.805208s22.87936.439118 25.53229-2.38125c13.58489-14.442295 26.78433-23.711982 48.02187-1.190625z"/><path d="M63.142425 104.11484s14.321412-10.904337 24.227983-16.370255c13.247782-7.309422 39.195072-7.951269 39.195072-7.951269s-13.11126 11.838848-29.466464 17.399246c-12.020906 4.086838-33.956591 6.922278-33.956591 6.922278z"/></g></g></svg>