<svg width="1240" height="1240" viewBox="0 0 328 328" xmlns="http://www.w3.org/2000/svg"><g fill="none" stroke="#fa0000"><circle cx="163.1" cy="162.6" r="31.8" stroke-width="4.6"/><path style="mix-blend-mode:normal" d="M249 167s-54 46-88 45c-32 0-82-45-82-45s49-51 82-51c35-1 88 51 88 51z" stroke-width="4.6"/><path d="m145 120 18-69 20 70M226 147l68 18-70 20M100 148l-68 18 70 19M145 210l18 68 20-70" stroke-width="4.6"/><path d="m195 126 36-34-23 42M133 126 97 92l23 42M133 204l-36 34 23-42M193 204l37 34-23-42" stroke-width="3.1"/></g></svg>